<?xml version="1.0" encoding="iso-8859-1"?>
<!-- Generator: Adobe Illustrator 19.0.0, SVG Export Plug-In . SVG Version: 6.00 Build 0)  -->
<svg version="1.1" id="Capa_1" xmlns="http://www.w3.org/2000/svg" xmlns:xlink="http://www.w3.org/1999/xlink" x="0px" y="0px"
	 viewBox="0 0 512 512" style="enable-background:new 0 0 512 512;" xml:space="preserve">
<path style="fill:#FFD764;" d="M424.435,0H256l-61.811,256L256,512h168.435c25.497,0,46.358-20.861,46.358-46.358V46.358
	C470.793,20.861,449.932,0,424.435,0z"/>
<g>
	<path style="fill:#FFE7A3;" d="M87.565,0C62.068,0,41.207,20.861,41.207,46.358v419.284c0,25.497,20.861,46.358,46.358,46.358H256
		V0H87.565z"/>
	<path style="fill:#FFE7A3;" d="M424.435,30.905h-30.905v450.189h30.905c8.376,0,15.453-7.076,15.453-15.453V46.358
		C439.887,37.982,432.811,30.905,424.435,30.905z"/>
</g>
<path style="fill:#FFFFFF;" d="M408.982,465.642V46.358c0-8.376-7.076-15.453-15.453-15.453H87.565
	c-8.376,0-15.453,7.076-15.453,15.453v419.284c0,8.376,7.076,15.453,15.453,15.453h305.964
	C401.906,481.095,408.982,474.018,408.982,465.642z"/>
<path style="fill:#3B4145;" d="M392.248,390.543c-2.429-27.418-15.083-53.963-37.529-73.413
	c-22.447-19.45-50.522-28.197-78.007-26.699h-51.616L256,382.122c8.555,27.883,27.225,49.947,50.791,63.341
	c12.585-24.008,16.362-52.664,8.484-80.745C337.546,383.549,365.182,392.017,392.248,390.543z"/>
<path style="fill:#E0230D;" d="M235.288,290.43c-27.485-1.497-55.561,7.25-78.007,26.699
	c-22.447,19.449-35.099,45.995-37.529,73.413c27.066,1.474,54.702-6.994,76.973-25.826c-7.879,28.082-4.101,56.737,8.484,80.745
	c23.566-13.392,42.236-35.457,50.791-63.341v-91.691h-20.711V290.43z"/>
<path style="fill:#FFE7A3;" d="M178.736,226.125c-17.069,0-30.905,13.837-30.905,30.905c0,17.069,13.836,30.905,30.905,30.905H256
	v-61.811H178.736z"/>
<path style="fill:#FFD764;" d="M333.264,226.125H256v61.811h77.264c17.069,0,30.905-13.836,30.905-30.905
	C364.169,239.962,350.333,226.125,333.264,226.125z"/>
<path style="fill:#FFE7A3;" d="M256,164.314c-42.671,0-77.264,34.592-77.264,77.264v30.905c0,42.671,34.592,77.264,77.264,77.264
	s77.264-34.592,77.264-77.264v-30.905C333.264,198.906,298.671,164.314,256,164.314z"/>
<path style="fill:#E0230D;" d="M317.811,66.447C283.674,66.447,256,94.12,256,128.258h-30.905L256,207.033
	c8.202-7.343,19.029-11.814,30.905-11.814c21.694,0,39.901,14.903,44.958,35.027l0.207,0.019h0.372l-14.298-97.484
	c-0.216-1.477-0.333-2.986-0.333-4.524c0-17.068,13.836-30.905,30.905-30.905s30.905,13.837,30.905,30.905
	C379.622,94.12,351.948,66.447,317.811,66.447z"/>
<g>
	<path style="fill:#3B4145;" d="M194.189,128.258c0,1.537-0.116,3.047-0.333,4.524l-14.298,97.484h0.372l0.194,0.036
		c5.038-20.152,23.257-35.082,44.97-35.082c11.876,0,22.703,4.47,30.905,11.814v-78.776c0-34.137-27.674-61.811-61.811-61.811
		s-61.811,27.674-61.811,61.811c0-17.068,13.836-30.905,30.905-30.905S194.189,111.189,194.189,128.258z"/>
	<path style="fill:#3B4145;" d="M230.245,254.455c-3.365,0-6.226-2.15-7.286-5.151h-8.166c-4.267,0-7.726-3.459-7.726-7.726
		c0-4.267,3.459-7.726,7.726-7.726h15.453c4.267,0,7.726,3.459,7.726,7.726v5.151C237.972,250.995,234.512,254.455,230.245,254.455z
		"/>
	<path style="fill:#3B4145;" d="M281.755,254.455c-4.267,0-7.726-3.459-7.726-7.726v-5.151c0-4.267,3.459-7.726,7.726-7.726h15.453
		c4.267,0,7.726,3.459,7.726,7.726c0,4.267-3.459,7.726-7.726,7.726h-8.166C287.981,252.305,285.119,254.455,281.755,254.455z"/>
</g>
<path style="fill:#FF5440;" d="M256,307.658c-10.185,0-19.321-6.448-22.733-16.044c-1.429-4.021,0.672-8.438,4.692-9.868
	c4.021-1.427,8.438,0.672,9.868,4.692c1.226,3.45,4.51,5.768,8.172,5.768c3.662,0,6.947-2.318,8.172-5.768
	c1.43-4.021,5.848-6.12,9.868-4.692c4.021,1.43,6.121,5.847,4.692,9.868C275.321,301.211,266.185,307.658,256,307.658z"/>
<g>
	<circle style="fill:#FFD764;" cx="132.378" cy="133.408" r="20.604"/>
	<circle style="fill:#FFD764;" cx="379.622" cy="133.408" r="20.604"/>
</g>
<g>
</g>
<g>
</g>
<g>
</g>
<g>
</g>
<g>
</g>
<g>
</g>
<g>
</g>
<g>
</g>
<g>
</g>
<g>
</g>
<g>
</g>
<g>
</g>
<g>
</g>
<g>
</g>
<g>
</g>
</svg>
